<mxfile host="Electron" modified="2024-09-17T12:44:55.932Z" agent="Mozilla/5.0 (Macintosh; Intel Mac OS X 10_15_7) AppleWebKit/537.36 (KHTML, like Gecko) draw.io/23.1.5 Chrome/120.0.6099.109 Electron/28.1.0 Safari/537.36" etag="VfPhO8-mtytFL8dPAft_" version="23.1.5" type="device">
  <diagram name="第 1 页" id="7GLt7UVrhu4QvVaffpb_">
    <mxGraphModel dx="1853" dy="705" grid="1" gridSize="10" guides="1" tooltips="1" connect="1" arrows="1" fold="1" page="1" pageScale="1" pageWidth="827" pageHeight="1169" math="0" shadow="0">
      <root>
        <mxCell id="0" />
        <mxCell id="1" parent="0" />
        <mxCell id="JC5-3vnX0W5QKhK5lBq1-4" value="&lt;font color=&quot;#66ff66&quot;&gt;CA FE BA BE&lt;/font&gt; &lt;font color=&quot;#66ffff&quot;&gt;00 00&lt;/font&gt; &lt;font color=&quot;#3399ff&quot;&gt;00 34&lt;/font&gt; &lt;font color=&quot;#ff33ff&quot;&gt;00 16&lt;/font&gt; 0A 00 04 00 12 09&lt;br style=&quot;border-color: var(--border-color); padding: 0px; margin: 0px;&quot;&gt;&lt;br style=&quot;border-color: var(--border-color); padding: 0px; margin: 0px;&quot;&gt;&lt;span style=&quot;&quot;&gt;00 03 00 13 07 00 14 07 00 15 01 00 03 6E 75 6D&lt;/span&gt;&lt;br style=&quot;border-color: var(--border-color); padding: 0px; margin: 0px;&quot;&gt;&lt;br style=&quot;border-color: var(--border-color); padding: 0px; margin: 0px;&quot;&gt;&lt;span style=&quot;&quot;&gt;01 00 01 49 01 00 06 3C 69 6E 69 74 3E 01 00 03&lt;/span&gt;&lt;br style=&quot;border-color: var(--border-color); padding: 0px; margin: 0px;&quot;&gt;&lt;br style=&quot;border-color: var(--border-color); padding: 0px; margin: 0px;&quot;&gt;&lt;span style=&quot;&quot;&gt;28 29 56 01 00 04 43 6F 64 65 01 00 0F 4C 69 6E&lt;/span&gt;&lt;br style=&quot;border-color: var(--border-color); padding: 0px; margin: 0px;&quot;&gt;&lt;br style=&quot;border-color: var(--border-color); padding: 0px; margin: 0px;&quot;&gt;&lt;span style=&quot;&quot;&gt;65 4E 75 6D 62 65 72 54 61 62 6C 65 01 00 12 4C&lt;/span&gt;&lt;br style=&quot;border-color: var(--border-color); padding: 0px; margin: 0px;&quot;&gt;&lt;br style=&quot;border-color: var(--border-color); padding: 0px; margin: 0px;&quot;&gt;&lt;span style=&quot;&quot;&gt;6F 63 61 6C 56 61 72 69 61 62 6C 65 54 61 62 6C&lt;/span&gt;&lt;br style=&quot;border-color: var(--border-color); padding: 0px; margin: 0px;&quot;&gt;&lt;br style=&quot;border-color: var(--border-color); padding: 0px; margin: 0px;&quot;&gt;&lt;span style=&quot;&quot;&gt;65 01 00 04 74 68 69 73 01 00 06 4C 44 65 6D 6F&lt;/span&gt;&lt;br style=&quot;border-color: var(--border-color); padding: 0px; margin: 0px;&quot;&gt;&lt;br style=&quot;border-color: var(--border-color); padding: 0px; margin: 0px;&quot;&gt;&lt;span style=&quot;&quot;&gt;3B 01 00 03 61 64 64 01 00 03 28 29 49 01 00 0A&lt;/span&gt;&lt;br style=&quot;border-color: var(--border-color); padding: 0px; margin: 0px;&quot;&gt;&lt;br style=&quot;border-color: var(--border-color); padding: 0px; margin: 0px;&quot;&gt;&lt;span style=&quot;&quot;&gt;53 6F 75 72 63 65 46 69 6C 65 01 00 09 44 65 6D&lt;/span&gt;&lt;br style=&quot;border-color: var(--border-color); padding: 0px; margin: 0px;&quot;&gt;&lt;br style=&quot;border-color: var(--border-color); padding: 0px; margin: 0px;&quot;&gt;&lt;span style=&quot;&quot;&gt;6F 2E 6A 61 76 61 0C 00 07 00 08 0C 00 05 00 06&lt;/span&gt;&lt;br style=&quot;border-color: var(--border-color); padding: 0px; margin: 0px;&quot;&gt;&lt;br style=&quot;border-color: var(--border-color); padding: 0px; margin: 0px;&quot;&gt;&lt;span style=&quot;&quot;&gt;01 00 04 44 65 6D 6F 01 00 10 6A 61 76 61 2F 6C&lt;/span&gt;&lt;br style=&quot;border-color: var(--border-color); padding: 0px; margin: 0px;&quot;&gt;&lt;br style=&quot;border-color: var(--border-color); padding: 0px; margin: 0px;&quot;&gt;&lt;span style=&quot;&quot;&gt;61 6E 67 2F 4F 62 6A 65 63 74 00 21 00 03 00 04&lt;/span&gt;&lt;br style=&quot;border-color: var(--border-color); padding: 0px; margin: 0px;&quot;&gt;&lt;br style=&quot;border-color: var(--border-color); padding: 0px; margin: 0px;&quot;&gt;&lt;span style=&quot;&quot;&gt;00 00 00 01 00 02 00 05 00 06 00 00 00 02 00 01&lt;/span&gt;&lt;br style=&quot;border-color: var(--border-color); padding: 0px; margin: 0px;&quot;&gt;&lt;br style=&quot;border-color: var(--border-color); padding: 0px; margin: 0px;&quot;&gt;&lt;span style=&quot;&quot;&gt;00 07 00 08 00 01 00 09 00 00 00 2F 00 01 00 01&lt;/span&gt;&lt;br style=&quot;border-color: var(--border-color); padding: 0px; margin: 0px;&quot;&gt;&lt;br style=&quot;border-color: var(--border-color); padding: 0px; margin: 0px;&quot;&gt;&lt;span style=&quot;&quot;&gt;00 00 00 05 2A B7 00 01 B1 00 00 00 02 00 0A 00&lt;/span&gt;&lt;br style=&quot;border-color: var(--border-color); padding: 0px; margin: 0px;&quot;&gt;&lt;br style=&quot;border-color: var(--border-color); padding: 0px; margin: 0px;&quot;&gt;&lt;span style=&quot;&quot;&gt;00 00 06 00 01 00 00 00 04 00 0B 00 00 00 0C 00&lt;/span&gt;&lt;br style=&quot;border-color: var(--border-color); padding: 0px; margin: 0px;&quot;&gt;&lt;br style=&quot;border-color: var(--border-color); padding: 0px; margin: 0px;&quot;&gt;&lt;span style=&quot;&quot;&gt;01 00 00 00 05 00 0C 00 0D 00 00 00 01 00 0E 00&lt;/span&gt;&lt;br style=&quot;border-color: var(--border-color); padding: 0px; margin: 0px;&quot;&gt;&lt;br style=&quot;border-color: var(--border-color); padding: 0px; margin: 0px;&quot;&gt;&lt;span style=&quot;&quot;&gt;0F 00 01 00 09 00 00 00 3D 00 03 00 01 00 00 00&lt;/span&gt;&lt;br style=&quot;border-color: var(--border-color); padding: 0px; margin: 0px;&quot;&gt;&lt;br style=&quot;border-color: var(--border-color); padding: 0px; margin: 0px;&quot;&gt;&lt;span style=&quot;&quot;&gt;0F 2A 2A B4 00 02 05 60 B5 00 02 2A B4 00 02 AC&lt;/span&gt;&lt;br style=&quot;border-color: var(--border-color); padding: 0px; margin: 0px;&quot;&gt;&lt;br style=&quot;border-color: var(--border-color); padding: 0px; margin: 0px;&quot;&gt;&lt;span style=&quot;&quot;&gt;&amp;nbsp;00 00 00 02 00 0A 00 00 00 0A 00 02 00 00 00 08&lt;/span&gt;&lt;br style=&quot;border-color: var(--border-color); padding: 0px; margin: 0px;&quot;&gt;&lt;br style=&quot;border-color: var(--border-color); padding: 0px; margin: 0px;&quot;&gt;&lt;span style=&quot;&quot;&gt;&amp;nbsp;00 0A 00 09 00 0B 00 00 00 0C 00 01 00 00 00 0F&lt;/span&gt;&lt;br style=&quot;border-color: var(--border-color); padding: 0px; margin: 0px;&quot;&gt;&lt;br style=&quot;border-color: var(--border-color); padding: 0px; margin: 0px;&quot;&gt;&lt;span style=&quot;&quot;&gt;00 0C 00 0D 00 00 00 01 00 10 00 00 00 02 00 11&lt;/span&gt;" style="rounded=0;whiteSpace=wrap;html=1;align=left;" vertex="1" parent="1">
          <mxGeometry x="-290" y="120" width="320" height="640" as="geometry" />
        </mxCell>
        <mxCell id="JC5-3vnX0W5QKhK5lBq1-5" value="u4&amp;nbsp; magic&amp;nbsp;&lt;font style=&quot;font-size: 10px;&quot;&gt;CA FE BA BE&lt;/font&gt;&lt;br&gt;&amp;nbsp;" style="text;html=1;align=center;verticalAlign=middle;whiteSpace=wrap;rounded=0;fillColor=#66FF66;" vertex="1" parent="1">
          <mxGeometry x="120" y="120" width="170" height="30" as="geometry" />
        </mxCell>
        <mxCell id="JC5-3vnX0W5QKhK5lBq1-9" style="edgeStyle=orthogonalEdgeStyle;rounded=0;orthogonalLoop=1;jettySize=auto;html=1;exitX=1;exitY=0.25;exitDx=0;exitDy=0;entryX=0;entryY=0.5;entryDx=0;entryDy=0;" edge="1" parent="1" source="JC5-3vnX0W5QKhK5lBq1-6" target="JC5-3vnX0W5QKhK5lBq1-8">
          <mxGeometry relative="1" as="geometry" />
        </mxCell>
        <mxCell id="JC5-3vnX0W5QKhK5lBq1-6" value="u2&amp;nbsp;minor_version&amp;nbsp; 00 00" style="text;html=1;align=center;verticalAlign=middle;whiteSpace=wrap;rounded=0;fillColor=#66FFFF;" vertex="1" parent="1">
          <mxGeometry x="120" y="150" width="170" height="30" as="geometry" />
        </mxCell>
        <mxCell id="JC5-3vnX0W5QKhK5lBq1-10" style="edgeStyle=orthogonalEdgeStyle;rounded=0;orthogonalLoop=1;jettySize=auto;html=1;exitX=1;exitY=0.5;exitDx=0;exitDy=0;entryX=0;entryY=0.5;entryDx=0;entryDy=0;" edge="1" parent="1" source="JC5-3vnX0W5QKhK5lBq1-7" target="JC5-3vnX0W5QKhK5lBq1-8">
          <mxGeometry relative="1" as="geometry" />
        </mxCell>
        <mxCell id="JC5-3vnX0W5QKhK5lBq1-7" value="u2&amp;nbsp;major_version&amp;nbsp; 00 34" style="text;html=1;align=center;verticalAlign=middle;whiteSpace=wrap;rounded=0;fillColor=#3399FF;" vertex="1" parent="1">
          <mxGeometry x="120" y="180" width="170" height="30" as="geometry" />
        </mxCell>
        <mxCell id="JC5-3vnX0W5QKhK5lBq1-8" value="0x00 00 对应十进制为0&lt;br&gt;0x00 34对应十进制为52&lt;br&gt;字节码版本为52.0对应编译器java1.8" style="shape=document;whiteSpace=wrap;html=1;boundedLbl=1;fillColor=#66B2FF;" vertex="1" parent="1">
          <mxGeometry x="390" y="130" width="180" height="90" as="geometry" />
        </mxCell>
        <mxCell id="JC5-3vnX0W5QKhK5lBq1-11" value="u2&amp;nbsp;constant_pool_count&amp;nbsp;&amp;nbsp;00 16" style="text;html=1;align=center;verticalAlign=middle;whiteSpace=wrap;rounded=0;fillColor=#FF33FF;" vertex="1" parent="1">
          <mxGeometry x="120" y="210" width="170" height="30" as="geometry" />
        </mxCell>
      </root>
    </mxGraphModel>
  </diagram>
</mxfile>
